<svg viewBox="258.5 187.5 101 101" version="1.1" xmlns="http://www.w3.org/2000/svg" xmlns:xlink="http://www.w3.org/1999/xlink" xmlns:penpot="https://penpot.app/xmlns" style="width:100%;height:100%;background:#E8E9EA" fill="none"><penpot:page id="af8aaf7c-05e6-8124-8003-b8ea0da6eea7"></penpot:page><g id="shape-f3b3d50c-8330-8002-8003-b8ea24407580"><penpot:shape penpot:name="Body" penpot:type="frame" penpot:hide-fill-on-export="false" penpot:transform="matrix(1.000000, 0.000000, 0.000000, 1.000000, 0.000000, 0.000000)" penpot:transform-inverse="matrix(1.000000, 0.000000, 0.000000, 1.000000, 0.000000, 0.000000)" penpot:proportion="1" penpot:proportion-lock="false" penpot:rotation="0" penpot:center-x="309" penpot:center-y="238" penpot:r1="10" penpot:r2="10" penpot:r3="10" penpot:r4="10"><penpot:fills><penpot:fill penpot:fill-color="#ffffff" penpot:fill-opacity="0"></penpot:fill></penpot:fills><penpot:strokes><penpot:stroke penpot:stroke-color="#000000" penpot:stroke-opacity="1" penpot:stroke-width="1" penpot:stroke-style="solid"></penpot:stroke></penpot:strokes></penpot:shape><defs><clipPath class="frame-clip-def frame-clip" id="frame-clip-f3b3d50c-8330-8002-8003-b8ea24407580-rumext-id-3"><path d="M269,188 h80 a10,10 0 0 1 10,10 v80 a10,10 0 0 1 -10,10 h-80 a10,10 0 0 1 -10,-10 v-80 a10,10 0 0 1 10,-10 z" style="fill:#ffffff;fill-opacity:0" x="259" y="188" width="100" height="100" transform="matrix(1.000000, 0.000000, 0.000000, 1.000000, 0.000000, 0.000000)"></path></clipPath></defs><g clip-path="url(#frame-clip-f3b3d50c-8330-8002-8003-b8ea24407580-rumext-id-3)" fill="none"><clipPath class="frame-clip-def frame-clip" id="frame-clip-f3b3d50c-8330-8002-8003-b8ea24407580-rumext-id-3"><path d="M269,188 h80 a10,10 0 0 1 10,10 v80 a10,10 0 0 1 -10,10 h-80 a10,10 0 0 1 -10,-10 v-80 a10,10 0 0 1 10,-10 z" style="fill:#ffffff;fill-opacity:0" x="259" y="188" width="100" height="100" transform="matrix(1.000000, 0.000000, 0.000000, 1.000000, 0.000000, 0.000000)"></path></clipPath><g class="fills" id="fills-f3b3d50c-8330-8002-8003-b8ea24407580"><path d="M269,188 h80 a10,10 0 0 1 10,10 v80 a10,10 0 0 1 -10,10 h-80 a10,10 0 0 1 -10,-10 v-80 a10,10 0 0 1 10,-10 z" style="fill:#ffffff;fill-opacity:0" x="259" y="188" transform="matrix(1.000000, 0.000000, 0.000000, 1.000000, 0.000000, 0.000000)" width="100" height="100" class="frame-background"></path></g><g class="frame-children"><g id="shape-f3b3d50c-8330-8002-8003-b8ea5f3b0fdf" style="fill:#000000" width="200" height="200" rx="0" ry="0"><penpot:shape penpot:name="icon-T" penpot:type="group" penpot:transform="matrix(1.000000, 0.000000, 0.000000, 1.000000, 0.000000, 0.000000)" penpot:transform-inverse="matrix(1.000000, 0.000000, 0.000000, 1.000000, 0.000000, 0.000000)" penpot:proportion="2.5" penpot:proportion-lock="false" penpot:rotation="0" penpot:center-x="309" penpot:center-y="238"><penpot:svg-import penpot:svg-attrs="width,height"></penpot:svg-import></penpot:shape><defs></defs><g id="shape-f3b3d50c-8330-8002-8003-b8ea5f3d5be9"><penpot:shape penpot:name="svg-path" penpot:type="path" penpot:transform="matrix(1.000000, 0.000000, 0.000000, 1.000000, 0.000000, 0.000000)" penpot:transform-inverse="matrix(1.000000, 0.000000, 0.000000, 1.000000, 0.000000, 0.000000)" penpot:proportion="1" penpot:proportion-lock="false" penpot:rotation="0" penpot:center-x="309.0029166666667" penpot:center-y="238"><penpot:svg-import penpot:svg-viewbox-x="1.627" penpot:svg-viewbox-y="0" penpot:svg-viewbox-width="20.748" penpot:svg-attrs="style" penpot:svg-viewbox-height="24" penpot:svg-transform="matrix(1.000000, 0.000000, 0.000000, 1.000000, 0.000000, 0.000000)" penpot:svg-style=""></penpot:svg-import><penpot:fills><penpot:fill penpot:fill-color="#333333"></penpot:fill></penpot:fills></penpot:shape><defs></defs><g class="fills" id="fills-f3b3d50c-8330-8002-8003-b8ea5f3d5be9"><path rx="0" ry="0" style="fill:#333333" d="M339.255,226.550L339.255,208.000L278.745,208.000L278.745,226.550L298.170,226.550L298.170,268.000L319.835,268.000L319.835,226.550L339.255,226.550ZZM309.904,208.000L308.087,208.000ZM309.892,216.525L309.892,209.545L335.749,209.545L325.485,216.525ZM292.544,216.525L282.254,209.545L308.087,209.545L308.087,216.525ZM290.771,217.295L280.554,224.195L280.554,210.373ZM282.275,225.005L292.541,218.053L306.815,218.053L298.675,225.000L282.275,225.005ZZM299.973,226.100L308.081,219.145L308.081,256.097L303.409,261.213L299.958,264.988ZM300.924,266.455L302.543,264.690L309.006,257.628L317.085,266.465ZM309.901,219.145L318.027,226.100L318.027,264.990L309.901,256.100ZM319.354,225.000L311.188,218.050L325.491,218.050L335.755,225.000ZM337.455,224.195L327.229,217.275L337.420,210.408L337.478,210.370Z"></path></g></g></g><g id="shape-f3b3d50c-8330-8002-8003-b8ea84a5c5c5" style="fill:#000000" width="200" height="228.57142857142858" rx="0" ry="0"><penpot:shape penpot:name="icon-cv" penpot:type="group" penpot:transform="matrix(1.000000, 0.000000, 0.000000, 1.000000, 0.000000, 0.000000)" penpot:transform-inverse="matrix(1.000000, 0.000000, 0.000000, 1.000000, 0.000000, 0.000000)" penpot:proportion="1" penpot:proportion-lock="true" penpot:rotation="0" penpot:center-x="329" penpot:center-y="235"><penpot:svg-import penpot:svg-attrs="width,height"></penpot:svg-import><penpot:layout-item penpot:layout-item-h-sizing="fix" penpot:layout-item-v-sizing="fix"></penpot:layout-item></penpot:shape><defs></defs><g id="shape-f3b3d50c-8330-8002-8003-b8ea84a7444e"><penpot:shape penpot:name="svg-path" penpot:type="path" penpot:transform="matrix(1.000000, 0.000000, 0.000000, 1.000000, 0.000000, 0.000000)" penpot:transform-inverse="matrix(1.000000, 0.000000, 0.000000, 1.000000, 0.000000, 0.000000)" penpot:proportion="1" penpot:proportion-lock="false" penpot:rotation="0" penpot:center-x="329" penpot:center-y="235"><penpot:svg-import penpot:svg-viewbox-x="0" penpot:svg-viewbox-y="32" penpot:svg-viewbox-width="448" penpot:svg-attrs="style" penpot:svg-viewbox-height="448" penpot:svg-transform="matrix(1.000000, 0.000000, 0.000000, 1.000000, 0.000000, 0.000000)" penpot:svg-style=""></penpot:svg-import><penpot:fills><penpot:fill penpot:fill-color="#333333"></penpot:fill></penpot:fills></penpot:shape><defs></defs><g class="fills" id="fills-f3b3d50c-8330-8002-8003-b8ea84a7444e"><path rx="0" ry="0" style="fill:#333333" d="M321.143,226.250C319.960,226.250,319.000,227.090,319.000,228.125L319.000,241.875C319.000,242.910,319.960,243.750,321.143,243.750L336.857,243.750C338.040,243.750,339.000,242.910,339.000,241.875L339.000,228.125C339.000,227.090,338.040,226.250,336.857,226.250ZM325.557,231.454C326.434,231.454,327.213,231.720,327.786,232.117C328.316,232.487,328.565,232.856,328.782,233.187L327.267,233.849C327.159,233.632,327.028,233.405,326.694,233.159C326.325,232.903,325.958,232.827,325.643,232.827C324.410,232.827,323.761,233.831,323.761,234.948C323.761,236.416,324.616,237.144,325.643,237.144C326.639,237.144,327.040,236.538,327.299,236.151L328.804,236.823C328.522,237.210,328.251,237.590,327.645,237.958C327.321,238.157,326.575,238.546,325.514,238.546C323.490,238.546,321.857,237.258,321.857,234.995C321.857,233.017,323.394,231.454,325.557,231.454ZM328.927,231.663L330.961,231.663L332.541,236.416L334.109,231.663L336.143,231.663L333.492,238.347L331.545,238.347Z"></path></g></g></g><g id="shape-f3b3d50c-8330-8002-8003-b8eba10d2d47" style="fill:#000000" width="200" height="200" rx="0" ry="0"><penpot:shape penpot:name="icon-arrow" penpot:type="group" penpot:proportion="1" penpot:proportion-lock="false" penpot:center-x="329" penpot:center-y="253"><penpot:svg-import penpot:svg-attrs="width,height"></penpot:svg-import></penpot:shape><defs></defs><g id="shape-f3b3d50c-8330-8002-8003-b8eba10dfca9"><penpot:shape penpot:name="svg-path" penpot:type="path" penpot:proportion="1" penpot:proportion-lock="false" penpot:center-x="328" penpot:center-y="252"><penpot:svg-import penpot:svg-viewbox-x="3" penpot:svg-viewbox-y="3" penpot:svg-viewbox-width="16" penpot:svg-attrs="style" penpot:svg-viewbox-height="16" penpot:svg-transform="matrix(1.000000, 0.000000, 0.000000, 1.000000, 0.000000, 0.000000)" penpot:svg-style=""></penpot:svg-import><penpot:fills><penpot:fill penpot:fill-color="#333333"></penpot:fill></penpot:fills></penpot:shape><defs></defs><g class="fills" id="fills-f3b3d50c-8330-8002-8003-b8eba10dfca9"><path rx="0" ry="0" style="fill:#333333" d="M329.000,260.000L329.000,251.000L320.000,251.000L320.000,249.000L331.000,249.000L331.000,260.000ZM334.000,255.000L334.000,246.000L325.000,246.000L325.000,244.000L336.000,244.000L336.000,255.000Z"></path></g></g></g></g></g><g id="strokes-f3b3d50c-8330-8002-8003-b8ea24407580" class="strokes"><g class="stroke-shape"><defs></defs><path d="M269,188 h80 a10,10 0 0 1 10,10 v80 a10,10 0 0 1 -10,10 h-80 a10,10 0 0 1 -10,-10 v-80 a10,10 0 0 1 10,-10 z" style="fill:none;fill-opacity:none;stroke-width:1;stroke:#000000;stroke-opacity:1;stroke-dasharray:" x="259" y="188" transform="matrix(1.000000, 0.000000, 0.000000, 1.000000, 0.000000, 0.000000)" width="100" height="100" class="frame-background"></path></g></g></g></svg>