<svg viewBox="258.5 187.5 101 101" version="1.1" xmlns="http://www.w3.org/2000/svg" xmlns:xlink="http://www.w3.org/1999/xlink" xmlns:penpot="https://penpot.app/xmlns" style="width:100%;height:100%;background:#E8E9EA" fill="none"><penpot:page id="98e616c4-e5b2-807f-8003-cbe8df42d80c"></penpot:page><g id="shape-f3b3d50c-8330-8002-8003-b8ea24407580"><penpot:shape penpot:name="Body" penpot:type="frame" penpot:hide-fill-on-export="false" penpot:transform="matrix(1.000000, 0.000000, 0.000000, 1.000000, 0.000000, 0.000000)" penpot:transform-inverse="matrix(1.000000, 0.000000, 0.000000, 1.000000, 0.000000, 0.000000)" penpot:proportion="1" penpot:proportion-lock="false" penpot:rotation="0" penpot:center-x="309" penpot:center-y="238" penpot:r1="10" penpot:r2="10" penpot:r3="10" penpot:r4="10"><penpot:fills><penpot:fill penpot:fill-color="#ffffff" penpot:fill-opacity="0"></penpot:fill></penpot:fills><penpot:strokes><penpot:stroke penpot:stroke-alignment="center" penpot:stroke-color="#333333" penpot:stroke-opacity="1" penpot:stroke-width="1" penpot:stroke-style="solid"></penpot:stroke></penpot:strokes></penpot:shape><defs><clipPath class="frame-clip-def frame-clip" id="frame-clip-f3b3d50c-8330-8002-8003-b8ea24407580-rumext-id-8"><path d="M269,188 h80 a10,10 0 0 1 10,10 v80 a10,10 0 0 1 -10,10 h-80 a10,10 0 0 1 -10,-10 v-80 a10,10 0 0 1 10,-10 z" style="fill:#ffffff;fill-opacity:0" x="259" y="188" width="100" height="100" transform="matrix(1.000000, 0.000000, 0.000000, 1.000000, 0.000000, 0.000000)"></path></clipPath></defs><g clip-path="url(#frame-clip-f3b3d50c-8330-8002-8003-b8ea24407580-rumext-id-8)" fill="none"><clipPath class="frame-clip-def frame-clip" id="frame-clip-f3b3d50c-8330-8002-8003-b8ea24407580-rumext-id-8"><path d="M269,188 h80 a10,10 0 0 1 10,10 v80 a10,10 0 0 1 -10,10 h-80 a10,10 0 0 1 -10,-10 v-80 a10,10 0 0 1 10,-10 z" style="fill:#ffffff;fill-opacity:0" x="259" y="188" width="100" height="100" transform="matrix(1.000000, 0.000000, 0.000000, 1.000000, 0.000000, 0.000000)"></path></clipPath><g class="fills" id="fills-f3b3d50c-8330-8002-8003-b8ea24407580"><path d="M269,188 h80 a10,10 0 0 1 10,10 v80 a10,10 0 0 1 -10,10 h-80 a10,10 0 0 1 -10,-10 v-80 a10,10 0 0 1 10,-10 z" style="fill:#ffffff;fill-opacity:0" x="259" y="188" transform="matrix(1.000000, 0.000000, 0.000000, 1.000000, 0.000000, 0.000000)" width="100" height="100" class="frame-background"></path></g><g class="frame-children"><g id="shape-98e616c4-e5b2-807f-8003-cbe9f43395be"><penpot:shape penpot:name="Rectangle" penpot:hidden="false" penpot:type="rect" penpot:transform="matrix(1.000000, 0.000000, 0.000000, 1.000000, 0.000000, 0.000000)" penpot:transform-inverse="matrix(1.000000, 0.000000, 0.000000, 1.000000, 0.000000, 0.000000)" penpot:proportion="1" penpot:proportion-lock="false" penpot:rotation="0" penpot:center-x="309" penpot:center-y="245.75" penpot:constraints-h="left" penpot:constraints-v="top" penpot:r1="0" penpot:r2="0" penpot:r3="0" penpot:r4="0"><penpot:fills><penpot:fill penpot:fill-color="#333333" penpot:fill-opacity="1"></penpot:fill></penpot:fills><penpot:strokes><penpot:stroke penpot:stroke-alignment="center" penpot:stroke-color="#333333" penpot:stroke-opacity="1" penpot:stroke-width="1" penpot:stroke-style="solid"></penpot:stroke></penpot:strokes></penpot:shape><defs></defs><g class="fills" id="fills-98e616c4-e5b2-807f-8003-cbe9f43395be"><path d="M300,225 h18 a0,0 0 0 1 0,0 v41.5 a0,0 0 0 1 0,0 h-18 a0,0 0 0 1 0,0 v-41.5 a0,0 0 0 1 0,0 z" style="fill:#333333;fill-opacity:1" x="300" y="225" transform="matrix(1.000000, 0.000000, 0.000000, 1.000000, 0.000000, 0.000000)" width="18" height="41.5"></path></g><g id="strokes-98e616c4-e5b2-807f-8003-cbe9f43395be" class="strokes"><g class="stroke-shape"><defs></defs><path d="M300,225 h18 a0,0 0 0 1 0,0 v41.5 a0,0 0 0 1 0,0 h-18 a0,0 0 0 1 0,0 v-41.5 a0,0 0 0 1 0,0 z" style="fill:none;fill-opacity:none;stroke-width:1;stroke:#333333;stroke-opacity:1;stroke-dasharray:" x="300" y="225" transform="matrix(1.000000, 0.000000, 0.000000, 1.000000, 0.000000, 0.000000)" width="18" height="41.5"></path></g></g></g><g id="shape-efec6647-7d74-800c-8003-cbf5d4606fc8"><penpot:shape penpot:name="Rectangle" penpot:type="path" penpot:transform="matrix(1.000000, 0.000000, 0.000000, 1.000000, 0.000000, 0.000000)" penpot:transform-inverse="matrix(1.000000, 0.000000, 0.000000, 1.000000, 0.000000, 0.000000)" penpot:proportion="1" penpot:proportion-lock="false" penpot:rotation="0" penpot:center-x="309" penpot:center-y="217.25" penpot:constraints-h="left" penpot:constraints-v="top"><penpot:fills><penpot:fill penpot:fill-color="#333333" penpot:fill-opacity="1"></penpot:fill></penpot:fills></penpot:shape><defs></defs><g class="fills" id="fills-efec6647-7d74-800c-8003-cbf5d4606fc8"><path rx="0" ry="0" style="fill:#333333;fill-opacity:1" d="M280.500,209.500L337.500,209.500L337.500,225.000L280.500,225.000L280.500,209.500Z"></path></g></g><g id="shape-f3b3d50c-8330-8002-8003-b8ea5f3b0fdf" style="fill:#000000" width="200" height="200" rx="0" ry="0"><penpot:shape penpot:name="icon-T" penpot:hidden="false" penpot:type="group" penpot:transform="matrix(1.000000, 0.000000, 0.000000, 1.000000, 0.000000, 0.000000)" penpot:transform-inverse="matrix(1.000000, 0.000000, 0.000000, 1.000000, 0.000000, 0.000000)" penpot:proportion="2.5" penpot:proportion-lock="false" penpot:rotation="0" penpot:center-x="309" penpot:center-y="238" penpot:constraints-h="left" penpot:constraints-v="top"><penpot:svg-import penpot:svg-attrs="width,height"></penpot:svg-import></penpot:shape><defs></defs><g id="shape-f3b3d50c-8330-8002-8003-b8ea5f3d5be9"><penpot:shape penpot:name="svg-path" penpot:type="path" penpot:transform="matrix(1.000000, 0.000000, 0.000000, 1.000000, 0.000000, 0.000000)" penpot:transform-inverse="matrix(1.000000, 0.000000, 0.000000, 1.000000, 0.000000, 0.000000)" penpot:proportion="1" penpot:proportion-lock="false" penpot:rotation="0" penpot:center-x="309.0029166666667" penpot:center-y="238"><penpot:svg-import penpot:svg-viewbox-x="1.627" penpot:svg-viewbox-y="0" penpot:svg-viewbox-width="20.748" penpot:svg-attrs="style" penpot:svg-viewbox-height="24" penpot:svg-transform="matrix(1.000000, 0.000000, 0.000000, 1.000000, 0.000000, 0.000000)" penpot:svg-style=""></penpot:svg-import><penpot:fills><penpot:fill penpot:fill-color="#ffffff" penpot:fill-opacity="1"></penpot:fill></penpot:fills></penpot:shape><defs></defs><g class="fills" id="fills-f3b3d50c-8330-8002-8003-b8ea5f3d5be9"><path rx="0" ry="0" style="fill:#ffffff;fill-opacity:1" d="M339.255,226.550L339.255,208.000L278.745,208.000L278.745,210.652L278.745,226.550L298.170,226.550L298.170,268.000L319.835,268.000L319.835,226.550L339.255,226.550ZL339.255,226.550ZM309.904,208.000L308.087,208.000L309.904,208.000ZM309.892,216.525L309.892,209.545L335.749,209.545L325.485,216.525L309.892,216.525ZM292.544,216.525L282.254,209.545L308.087,209.545L308.087,216.525L292.544,216.525ZM290.771,217.295L280.554,224.195L280.554,210.373L290.771,217.295ZM282.275,225.005L292.541,218.053L306.815,218.053L298.675,225.000L282.275,225.005ZL282.275,225.005ZM299.973,226.100L308.081,219.145L308.081,256.097L303.409,261.213L299.958,264.988L299.973,226.100ZM300.924,266.455L302.543,264.690L309.006,257.628L317.085,266.465L300.924,266.455ZM309.901,219.145L318.027,226.100L318.027,264.990L309.901,256.100L309.901,219.145ZM319.354,225.000L311.188,218.050L325.491,218.050L335.755,225.000L319.354,225.000ZM337.455,224.195L327.229,217.275L337.420,210.408L337.478,210.370L337.455,224.195Z"></path></g></g></g><g id="shape-f3b3d50c-8330-8002-8003-b8ea84a5c5c5" style="fill:#000000" width="200" height="228.57142857142858" rx="0" ry="0"><penpot:shape penpot:name="icon-cv" penpot:type="group" penpot:transform="matrix(1.000000, 0.000000, 0.000000, 1.000000, 0.000000, 0.000000)" penpot:transform-inverse="matrix(1.000000, 0.000000, 0.000000, 1.000000, 0.000000, 0.000000)" penpot:proportion="1" penpot:proportion-lock="true" penpot:rotation="0" penpot:center-x="326.75" penpot:center-y="233" penpot:constraints-h="left" penpot:constraints-v="top"><penpot:svg-import penpot:svg-attrs="width,height"></penpot:svg-import></penpot:shape><defs></defs><g id="shape-f3b3d50c-8330-8002-8003-b8ea84a7444e"><penpot:shape penpot:name="svg-path" penpot:type="path" penpot:transform="matrix(1.000000, 0.000000, 0.000000, 1.000000, 0.000000, 0.000000)" penpot:transform-inverse="matrix(1.000000, 0.000000, 0.000000, 1.000000, 0.000000, 0.000000)" penpot:proportion="1" penpot:proportion-lock="false" penpot:rotation="0" penpot:center-x="327" penpot:center-y="232.3125"><penpot:svg-import penpot:svg-viewbox-x="0" penpot:svg-viewbox-y="32" penpot:svg-viewbox-width="448" penpot:svg-attrs="style" penpot:svg-viewbox-height="448" penpot:svg-transform="matrix(1.000000, 0.000000, 0.000000, 1.000000, 0.000000, 0.000000)" penpot:svg-style=""></penpot:svg-import><penpot:fills><penpot:fill penpot:fill-color="#333333"></penpot:fill></penpot:fills></penpot:shape><defs></defs><g class="fills" id="fills-f3b3d50c-8330-8002-8003-b8ea84a7444e"><path rx="0" ry="0" style="fill:#333333" d="M319.536,224.000C318.412,224.000,317.500,224.798,317.500,225.781L317.500,238.844C317.500,239.827,318.412,240.625,319.536,240.625L334.464,240.625C335.588,240.625,336.500,239.827,336.500,238.844L336.500,225.781C336.500,224.798,335.588,224.000,334.464,224.000L319.536,224.000ZM323.729,228.944C324.562,228.944,325.302,229.196,325.847,229.574C326.351,229.925,326.587,230.276,326.792,230.591L325.354,231.220C325.251,231.013,325.127,230.797,324.809,230.563C324.459,230.320,324.110,230.249,323.811,230.249C322.640,230.249,322.023,231.202,322.023,232.263C322.023,233.657,322.835,234.349,323.811,234.349C324.757,234.349,325.138,233.774,325.384,233.405L326.813,234.044C326.546,234.412,326.289,234.773,325.713,235.123C325.405,235.312,324.696,235.681,323.688,235.681C321.766,235.681,320.214,234.458,320.214,232.308C320.214,230.429,321.674,228.944,323.729,228.944ZM326.931,229.142L328.863,229.142L330.364,233.657L331.853,229.142L333.786,229.142L331.267,235.492L329.418,235.492L326.931,229.142Z"></path></g></g></g></g></g><g id="strokes-f3b3d50c-8330-8002-8003-b8ea24407580" class="strokes"><g class="stroke-shape"><defs></defs><path d="M269,188 h80 a10,10 0 0 1 10,10 v80 a10,10 0 0 1 -10,10 h-80 a10,10 0 0 1 -10,-10 v-80 a10,10 0 0 1 10,-10 z" style="fill:none;fill-opacity:none;stroke-width:1;stroke:#333333;stroke-opacity:1;stroke-dasharray:" x="259" y="188" transform="matrix(1.000000, 0.000000, 0.000000, 1.000000, 0.000000, 0.000000)" width="100" height="100" class="frame-background"></path></g></g></g></svg>